PathFileType	4	(X/Y/Z)	D:\TRACE\spotREDO_2-26-24\spot_justBody_Motion_3_3-platform.trc
DataRate	CameraRate	NumFrames	NumMarkers	Units	OrigDataRate	OrigDataStartFrame	OrigNumFrames
100.00	100.00	      66	5	mm	100.00	5251	      7000
Frame#	Time	Left_Front			Right_Front			Left_Aft			Right_Aft			Post			
		X1	Y1	Z1	X2	Y2	Z2	X3	Y3	Z3	X4	Y4	Z4	X5	Y5	Z5	

5251	52.500	-684.31079	-37.25629	-583.16742	730.42932	-23.82285	-498.81613	-755.99225	38.24277	633.14148	814.43390	46.18610	637.10522	25.28027	566.28516	-1023.80804	
5252	52.510	-683.99170	-37.14532	-583.13922	730.71527	-23.57321	-498.79349	-755.71014	38.03450	633.24097	814.75769	45.97329	637.19238	25.53822	566.57928	-1023.77264	
5253	52.520	-683.80005	-36.83651	-583.16022	730.93506	-23.37593	-498.79236	-755.51917	37.86736	633.35437	814.99347	45.62306	637.21887	25.96983	567.13190	-1023.48938	
5254	52.530	-683.53082	-36.49495	-583.12372	731.26489	-23.03403	-498.81000	-755.34808	37.66570	633.40680	815.16089	45.40612	637.24371	26.26088	567.62659	-1023.18475	
5255	52.540	-683.17822	-36.22074	-582.98431	731.56927	-22.72283	-498.77338	-755.03522	37.57329	633.53168	815.32770	45.35066	637.42346	26.12350	567.90662	-1023.09558	
5256	52.550	-682.98340	-35.94153	-582.95862	731.75299	-22.53876	-498.80560	-754.78589	37.24027	633.51526	815.54852	44.96823	637.35321	26.26005	568.15924	-1022.98785	
5257	52.560	-682.81451	-35.82718	-582.97125	731.95117	-22.31087	-498.91492	-754.41125	37.25227	633.48370	815.99933	44.50485	637.33051	26.85351	568.68170	-1022.66711	
5258	52.570	-682.74042	-35.64027	-583.02905	732.13049	-22.26724	-498.84756	-754.10614	36.83718	633.47064	816.32050	44.46933	637.40381	27.11088	569.01184	-1022.33228	
5259	52.580	-682.40131	-35.48788	-583.00317	732.49969	-22.14130	-498.70358	-753.82385	36.68398	633.54962	816.57941	44.17809	637.60297	27.38884	569.50610	-1021.94440	
5260	52.590	-682.01892	-35.20371	-582.93933	732.67517	-22.11667	-498.54645	-753.63751	36.32302	633.68219	816.61005	44.16734	637.61420	27.46188	569.94995	-1021.45135	
5261	52.600	-681.77209	-34.97291	-582.93555	732.88806	-22.04327	-498.39929	-753.63306	36.06910	633.73529	816.60913	43.93755	637.69244	27.68440	570.12183	-1020.94891	
5262	52.610	-681.63403	-34.80124	-582.88104	733.12714	-21.78392	-498.30402	-753.50635	35.98795	633.80939	816.75238	43.51377	637.55463	28.19471	570.42377	-1020.46698	
5263	52.620	-681.54352	-34.69112	-582.79474	733.45782	-21.62351	-498.19977	-753.33325	35.74110	633.91718	817.12286	43.26011	637.84534	28.46476	570.85413	-1020.11816	
5264	52.630	-681.36804	-34.58316	-582.72589	733.61151	-21.40033	-498.18268	-753.06097	35.55120	633.98315	817.42719	43.07764	637.88861	28.26605	571.26123	-1020.18304	
5265	52.640	-681.17993	-34.27066	-582.61456	733.94543	-21.12736	-498.05600	-752.80713	35.40932	634.05609	817.66553	42.81207	637.90314	28.36229	571.70227	-1019.97803	
5266	52.650	-681.08710	-33.82437	-582.57800	733.98334	-20.81650	-498.29047	-752.48462	35.04088	634.28229	817.78412	42.58233	637.97363	29.39789	572.04272	-1020.23682	
5267	52.660	-680.93915	-33.52854	-582.56482	734.13617	-20.77878	-498.00967	-752.46405	34.53764	634.23749	817.84668	42.24908	637.91644	29.39861	572.46643	-1020.18475	
5268	52.670	-680.84448	-33.28114	-582.55981	734.21796	-20.53976	-497.95679	-752.24512	34.25713	634.31274	818.04865	42.09745	638.18109	29.47260	572.85345	-1019.80157	
5269	52.680	-680.62189	-33.02656	-582.49890	734.29541	-20.39702	-497.92224	-752.18701	34.03060	634.46783	818.23010	41.85735	638.32031	29.39336	573.46484	-1019.52985	
5270	52.690	-680.41461	-32.72324	-582.45813	734.46198	-20.16438	-497.91815	-752.01599	33.88805	634.51172	818.50238	41.62731	638.36267	29.74306	573.90759	-1018.98267	
5271	52.700	-680.27600	-32.46209	-582.38977	734.53314	-19.78185	-497.84109	-751.97076	33.69859	634.61761	818.66949	41.33483	638.31458	29.84936	574.30157	-1018.55200	
5272	52.710	-680.09564	-32.30115	-582.28619	734.75641	-19.51013	-497.74326	-751.80103	33.57690	634.61768	818.68835	41.12693	638.38849	30.00759	574.74768	-1017.98242	
5273	52.720	-680.01080	-32.11296	-582.20898	734.79626	-19.32487	-497.72244	-751.68213	33.36012	634.61951	818.71802	40.98148	638.68335	30.19233	575.18536	-1017.35529	
5274	52.730	-679.91876	-31.95938	-582.15283	735.05121	-19.11157	-497.54984	-751.57556	32.99743	634.71503	818.64893	40.78187	638.69885	30.10199	575.49945	-1016.92322	
5275	52.740	-679.90930	-31.86325	-582.08429	735.06079	-19.00275	-497.49112	-751.52026	32.71738	634.82043	818.70819	40.59146	638.77325	29.73249	575.91791	-1016.55737	
5276	52.750	-679.70996	-31.64069	-582.00653	735.22278	-18.82089	-497.55582	-751.35791	32.44772	634.92944	818.85492	40.32140	638.84595	29.82657	576.28503	-1016.44067	
5277	52.760	-679.62201	-31.38611	-582.01062	735.24469	-18.49115	-497.53088	-751.28851	32.14645	635.04822	819.03571	39.84282	638.88708	30.02529	576.72559	-1016.34552	
5278	52.770	-679.61749	-31.10103	-581.95184	735.28375	-18.43620	-497.51538	-751.24713	31.90915	635.16327	819.06934	39.54680	638.92407	30.21573	577.04938	-1016.32123	
5279	52.780	-679.52203	-30.73044	-581.89044	735.21130	-18.18271	-497.56638	-751.21301	31.72055	635.21069	819.17114	39.36095	639.11896	30.16268	577.40265	-1016.40826	
5280	52.790	-679.44690	-30.52571	-581.84741	735.42163	-18.05696	-497.43735	-751.13995	31.51671	635.23578	819.17798	39.16060	639.11877	30.13926	577.79541	-1016.30908	
5281	52.800	-679.40570	-30.33055	-581.81635	735.48145	-17.90368	-497.45447	-751.10553	31.38240	635.27167	819.17444	39.03728	639.10730	30.27497	578.20502	-1016.13483	
5282	52.810	-679.35193	-30.10222	-581.78607	735.47705	-17.67591	-497.37805	-751.06879	31.31016	635.29950	819.22473	38.89718	639.19592	30.28934	578.46765	-1015.85480	
5283	52.820	-679.44354	-29.86192	-581.73566	735.42413	-17.55878	-497.25055	-751.09467	31.25054	635.36096	819.22540	38.60941	639.13171	30.35159	578.75928	-1015.61121	
5284	52.830	-679.52997	-29.66331	-581.71124	735.46332	-17.36239	-497.15967	-751.10614	31.09378	635.42468	819.17987	38.49149	639.17029	30.46159	579.17670	-1015.26276	
5285	52.840	-679.35492	-29.55471	-581.64185	735.49524	-17.25033	-497.06915	-751.07922	30.79249	635.55884	819.30225	38.28996	639.39563	30.42453	579.59485	-1014.78125	
5286	52.850	-679.39465	-29.41413	-581.63971	735.61658	-17.10443	-496.99188	-750.95764	30.31138	635.79248	819.38776	38.13697	639.48138	30.41023	579.89752	-1014.09607	
5287	52.860	-679.40015	-29.29381	-581.56635	735.64966	-17.01662	-497.00961	-750.97144	30.06436	635.85858	819.41492	37.96160	639.58124	30.39868	580.13495	-1013.69000	
5288	52.870	-679.37103	-29.15302	-581.62036	735.59509	-16.83524	-497.02951	-750.97736	29.80648	635.89954	819.42859	37.84468	639.73419	30.66306	580.65686	-1013.12787	
5289	52.880	-679.31439	-28.89858	-581.51868	735.52924	-16.58160	-496.95602	-750.95715	29.58551	635.90735	819.40887	37.68992	639.78973	30.61629	580.97400	-1013.03894	
5290	52.890	-679.39130	-28.53811	-581.42999	735.59650	-16.34314	-496.88394	-750.92206	29.43114	635.98322	819.36774	37.45075	639.75745	30.65752	581.26495	-1012.95062	
5291	52.900	-679.45923	-28.28740	-581.46338	735.50995	-16.12757	-496.75757	-750.94049	29.28206	636.05676	819.31299	37.14950	639.65027	30.49626	581.59454	-1012.95953	
5292	52.910	-679.43640	-28.09581	-581.40521	735.49200	-15.92058	-496.80151	-750.94781	29.19868	636.05847	819.32660	37.18106	639.72998	30.49942	581.95789	-1012.94556	
5293	52.920	-679.49762	-27.84153	-581.38989	735.60059	-15.70884	-496.76593	-750.93085	29.19177	636.10138	819.30951	37.06173	639.68860	30.34225	582.44073	-1013.04846	
5294	52.930	-679.49341	-27.63103	-581.32758	735.41333	-15.61371	-496.75946	-751.00873	28.83638	636.11035	819.37964	36.38114	639.89923	30.37643	582.57050	-1012.99347	
5295	52.940	-679.65979	-27.48627	-581.31567	735.49567	-15.61046	-496.71167	-751.05322	28.62043	636.17535	819.37305	36.39792	639.91870	30.36143	582.63599	-1012.92334	
5296	52.950	-679.71106	-27.37616	-581.29285	735.54724	-15.49990	-496.66730	-751.09534	28.53406	636.20068	819.32513	36.12333	639.80121	30.29430	582.72876	-1012.83484	
5297	52.960	-679.80536	-27.30454	-581.26074	735.32025	-15.48075	-496.73276	-751.23590	28.49887	636.31720	819.44031	35.68624	640.00232	30.19518	582.90833	-1012.44861	
5298	52.970	-679.87390	-27.29886	-581.22491	735.00897	-15.08254	-496.80457	-751.40802	28.38912	636.31018	818.95105	35.90455	640.09991	30.18200	583.36237	-1012.04822	
5299	52.980	-679.96820	-27.23655	-581.20172	734.69641	-14.83772	-496.68851	-751.68939	28.44508	636.22827	818.72595	35.84269	640.14246	29.90500	583.74512	-1011.71625	
5300	52.990	-680.04663	-27.12151	-581.17908	734.50250	-14.63066	-496.79706	-751.80316	28.23722	636.37732	818.55634	35.67959	640.28662	30.15759	584.18793	-1011.04047	
5301	53.000	-680.16400	-27.00551	-581.15112	734.44110	-14.58471	-496.71109	-751.91833	28.01864	636.41046	818.45410	35.48822	640.28259	30.05324	584.47662	-1010.84979	
5302	53.010	-680.27502	-26.81193	-581.14532	734.25702	-14.48739	-496.67136	-752.05737	27.80212	636.44318	818.42188	35.41347	640.32727	29.40947	584.55096	-1011.12762	
5303	53.020	-680.40857	-26.63451	-581.10864	734.14758	-14.39424	-496.64865	-752.14618	27.66776	636.46057	818.33716	35.37558	640.33173	29.23502	584.75232	-1010.90192	
5304	53.030	-680.45416	-26.45781	-581.08636	734.14880	-14.28993	-496.57007	-752.23590	27.59446	636.51447	818.38147	35.32938	640.34863	29.18002	585.00928	-1010.67615	
5305	53.040	-680.60693	-26.22481	-580.96393	734.19580	-14.45569	-496.43292	-752.45734	27.61044	636.50995	818.28076	35.22155	640.32275	29.04221	585.23328	-1010.49872	
5306	53.050	-680.72528	-26.12914	-580.90021	734.13165	-14.40539	-496.42902	-752.55176	27.52938	636.56274	818.02875	35.02262	640.35712	28.95299	585.30164	-1010.43134	
5307	53.060	-680.93835	-26.03398	-580.84448	733.96448	-14.40763	-496.34933	-752.70105	27.41985	636.61053	817.74084	34.86563	640.34015	28.80843	585.40411	-1010.36005	
5308	53.070	-681.10321	-25.96191	-580.88049	733.84131	-14.33503	-496.31607	-752.82007	26.95220	636.68982	817.45435	34.64232	640.26044	28.60431	585.45050	-1010.32672	
5309	53.080	-681.24817	-25.82519	-580.86682	733.82092	-14.35458	-496.30072	-753.01123	26.86860	636.66205	817.24615	34.60952	640.33167	28.54781	585.57202	-1010.33234	
5310	53.090	-681.40985	-25.72972	-580.76123	733.53125	-14.10209	-496.44592	-753.27557	26.87386	636.68372	817.08331	34.39449	640.36200	28.36940	585.75439	-1010.25842	
5311	53.100	-681.63025	-25.61218	-580.71118	733.16858	-13.86618	-496.39685	-753.10828	26.96829	636.77203	816.81244	34.31832	640.42169	28.10346	585.87024	-1010.19971	
5312	53.110	-681.76105	-25.56986	-580.69861	732.93591	-13.78245	-496.41824	-753.35107	26.83902	636.75464	816.49304	34.11764	640.46826	27.98932	586.02069	-1010.10864	
5313	53.120	-682.03979	-25.50954	-580.74817	732.88916	-13.93044	-496.21002	-753.68188	26.68829	636.71265	817.04681	33.36154	640.29858	27.89602	586.09332	-1010.07471	
5314	53.130	-682.25824	-25.52934	-580.74841	732.63147	-13.90190	-496.24075	-753.88593	26.59913	636.77893	817.03333	33.26442	640.40405	27.75172	586.24713	-1009.96960	
5315	53.140	-682.48962	-25.50655	-580.76733	732.38379	-13.62677	-496.26572	-754.10040	26.55026	636.81213	816.34052	33.81450	640.53058	27.61952	586.40692	-1009.88220	
5316	53.150	-682.79749	-25.38918	-580.74994	732.20056	-13.58495	-496.25653	-754.35400	26.50878	636.85095	816.00226	33.76316	640.72046	27.30827	586.52661	-1009.70593	
